PathFileType	4	(X/Y/Z)	C:/Users/opensim2020/Desktop/walking_exp_matlab/subject03_walking09_straight_04.trc	
DataRate	CameraRate	NumFrames	NumMarkers	Units	OrigDataRate	OrigDataStartFrame	OrigNumFrames	
100.00	100.00	4	47	mm	100.00	4053	353	
Frame#	Time	LFHD			RFHD			LBHD			RBHD			C7			T10			CLAV			STRN			RBAK			LSHO			LUPA			LELB			LFRM			LWRA			LWRB			LFIN			RSHO			RUPA			RELB			RFRM			RWRA			RWRB			RFIN			LASI			RASI			LPSI			RPSI			LTHI			LKNE			LTIB			LANK			LHEE			LTOE			RTHI			RKNE			RTIB			RANK			RHEE			RTOE			*39			*40			*41			*42			*43			*44			*45			*46			
		X1	Y1	Z1	X2	Y2	Z2	X3	Y3	Z3	X4	Y4	Z4	X5	Y5	Z5	X6	Y6	Z6	X7	Y7	Z7	X8	Y8	Z8	X9	Y9	Z9	X10	Y10	Z10	X11	Y11	Z11	X12	Y12	Z12	X13	Y13	Z13	X14	Y14	Z14	X15	Y15	Z15	X16	Y16	Z16	X17	Y17	Z17	X18	Y18	Z18	X19	Y19	Z19	X20	Y20	Z20	X21	Y21	Z21	X22	Y22	Z22	X23	Y23	Z23	X24	Y24	Z24	X25	Y25	Z25	X26	Y26	Z26	X27	Y27	Z27	X28	Y28	Z28	X29	Y29	Z29	X30	Y30	Z30	X31	Y31	Z31	X32	Y32	Z32	X33	Y33	Z33	X34	Y34	Z34	X35	Y35	Z35	X36	Y36	Z36	X37	Y37	Z37	X38	Y38	Z38	X39	Y39	Z39	X40	Y40	Z40	X41	Y41	Z41	X42	Y42	Z42	X43	Y43	Z43	X44	Y44	Z44	X45	Y45	Z45	X46	Y46	Z46	X47	Y47	Z47	

309	3.080	1519.37671	-895.62555	1620.19080	1390.30273	-863.15131	1623.09790	1546.26465	-769.33746	1578.69617	1418.53601	-742.21277	1581.23560	1491.50330	-722.26910	1419.24890	1491.70850	-685.39630	1105.21814	1473.22168	-840.87390	1340.22876	1475.38025	-881.94666	1174.93896	1404.36182	-652.92993	1243.58923	1631.50073	-820.17578	1379.17358	1705.69421	-861.41760	1192.98438	1714.84583	-905.59235	1078.57458	1699.85461	-977.72955	971.71570	1656.28625	-1031.99243	871.04724	1710.89990	-1022.42267	867.36127	1692.35095	-1069.58057	800.50159	1321.13196	-774.28333	1362.58777	1250.98584	-769.48511	1139.01611	1236.66089	-789.59943	1028.51917	1233.82739	-816.15070	894.19781	1266.18445	-858.18555	802.19519	1226.85901	-821.76678	794.40967	1232.09583	-850.96082	726.34418	1598.05652	-860.89386	943.56769	1358.83179	-847.69763	940.93976	1555.59180	-696.25476	965.39166	1406.90100	-688.25183	964.91522	1628.05249	-791.86328	641.70428	1584.89014	-774.82654	465.48621	1585.33826	-704.15527	281.58139	1541.49268	-656.66180	77.26219	1507.29480	-612.10010	45.67055	1509.60706	-806.11267	35.06928	1312.06079	-858.69135	648.93372	1344.09045	-938.20374	486.73209	1342.71497	-907.10541	299.12692	1389.00098	-892.81952	83.78759	1444.26147	-852.64960	49.90736	1397.59326	-1029.32800	48.03517	1489.44446	-804.78052	1682.08264																					 
310	3.090	1518.65295	-902.28528	1619.56360	1389.60498	-869.43195	1622.35571	1545.69336	-776.22211	1577.91553	1418.17285	-748.66174	1580.42297	1491.29932	-728.81049	1418.52710	1491.35022	-691.40533	1104.87891	1472.93396	-847.50220	1339.36316	1475.31323	-888.42590	1174.07568	1403.93628	-659.62085	1242.88684	1631.13806	-826.85693	1378.54333	1705.43347	-868.77216	1192.72742	1714.70154	-913.43463	1078.56323	1699.10022	-986.73260	972.86633	1654.72693	-1042.30994	873.13928	1709.32959	-1032.89917	868.93225	1690.23291	-1081.03564	802.99921	1320.87219	-780.96881	1361.76965	1250.88232	-775.36737	1138.12598	1236.50757	-795.07916	1027.53711	1233.60229	-821.16785	893.17828	1265.86572	-862.68524	800.98724	1226.58850	-826.15338	793.22858	1231.62524	-855.02539	725.13861	1598.20837	-866.88367	942.99762	1358.77576	-854.24725	939.91699	1555.23157	-702.28003	964.82153	1406.47644	-694.84711	964.02179	1628.04028	-796.25037	641.38324	1585.07080	-777.92017	465.28491	1585.39648	-705.70483	281.82718	1541.34888	-656.74445	77.71610	1507.02148	-612.18726	46.30818	1509.64319	-806.12689	35.00689	1312.31836	-864.30328	647.53546	1345.49939	-944.43829	485.66635	1343.90979	-919.59027	297.69855	1389.70691	-914.83862	81.62388	1445.18530	-875.81836	47.05681	1398.52698	-1052.60291	49.07860	1488.84766	-811.32806	1681.31274																					 
311	3.100	1517.93958	-908.94049	1618.93713	1388.91797	-875.96509	1621.51440	1545.32898	-782.87842	1577.19641	1417.66248	-755.52222	1579.28943	1490.80090	-735.58221	1417.77185	1490.56677	-698.21985	1103.86401	1472.67334	-854.20593	1338.62671	1475.21143	-894.86670	1173.17407	1403.76123	-666.14209	1242.28040	1630.76099	-833.52930	1377.84851	1705.30676	-876.09149	1192.42371	1714.48059	-920.99023	1078.41589	1698.27539	-995.44171	973.69916	1653.12866	-1052.21558	874.99054	1707.75244	-1042.95605	870.27234	1688.11914	-1092.03625	805.19708	1320.59033	-787.52649	1361.02429	1250.73071	-781.32635	1137.13965	1236.35901	-800.61627	1026.54480	1233.38953	-826.09515	892.05957	1265.38403	-867.40625	799.76160	1226.37769	-830.35876	792.19958	1231.23254	-859.13641	723.89758	1598.27283	-872.86066	942.39941	1358.67249	-860.93414	938.88293	1554.84644	-708.41449	964.28058	1406.05994	-701.53070	963.11072	1628.52368	-800.61298	641.08069	1585.30713	-781.14734	465.04916	1585.47107	-707.34967	282.08200	1541.14038	-657.35040	77.68605	1506.91699	-612.16351	47.11996	1509.69604	-806.12292	34.96471	1312.42151	-869.64990	646.09833	1346.85754	-950.33221	484.59183	1344.99695	-931.52277	296.47537	1390.61731	-935.96802	80.10288	1446.31946	-898.21228	45.07047	1399.37646	-1074.88184	50.03028	1488.22083	-817.85101	1680.47327																					 
312	3.110	1517.19751	-915.69153	1618.29199	1388.23059	-882.44122	1620.73120	1544.81055	-789.65405	1576.44507	1417.18579	-761.98792	1578.45862	1490.63232	-742.28522	1417.08972	1490.06628	-704.63202	1103.26624	1472.29858	-860.87445	1337.70654	1475.06030	-901.44012	1172.33020	1403.41785	-672.85699	1241.65039	1630.37000	-840.26556	1377.11011	1704.95618	-883.15088	1191.89966	1714.16687	-928.32269	1078.07397	1697.38159	-1003.93402	974.22284	1651.58545	-1061.89563	876.68091	1706.12122	-1052.66821	871.46680	1686.02600	-1102.62439	807.23956	1320.18066	-794.57434	1360.07471	1250.65149	-787.79272	1136.27869	1236.26526	-806.44000	1025.54712	1233.19495	-831.16510	890.92444	1265.11255	-872.12408	798.45349	1226.18811	-834.76129	791.03656	1230.91602	-863.27863	722.58582	1598.32324	-878.95630	941.73822	1358.57825	-867.81567	937.88306	1554.36401	-714.72498	963.71307	1405.54114	-708.21521	962.25305	1627.91943	-805.04510	640.81757	1585.63342	-784.54919	464.81979	1585.61243	-709.24591	282.36945	1540.92188	-657.54425	78.71645	1506.92456	-612.32568	48.02054	1509.71899	-806.18073	34.95395	1312.43494	-875.22620	644.63928	1348.21631	-955.99451	483.31903	1346.32446	-942.93774	295.25360	1391.33936	-956.20905	78.94993	1447.63684	-919.71484	43.93879	1400.16956	-1096.21277	51.01124	1487.33362	-824.34448	1679.37866																					 
